<svg width="42" height="42" viewBox="0 0 42 42" fill="none" xmlns="http://www.w3.org/2000/svg">
<path d="M34 0C38.4183 0 42 3.58172 42 8V34C42 38.4183 38.4183 42 34 42H8C3.58172 42 8.05346e-08 38.4183 0 34V8C0 3.58172 3.58172 8.0532e-08 8 0H34Z" fill="#F2F4F8"/>
<path d="M34 0C38.4183 0 42 3.58172 42 8V34C42 38.4183 38.4183 42 34 42H8C3.58172 42 8.05346e-08 38.4183 0 34V8C0 3.58172 3.58172 8.0532e-08 8 0H34Z" stroke="#E5E7EB"/>
<g clip-path="url(#clip0_2339_937)">
<path d="M21.4996 12.875C21.4996 12.3777 21.6972 11.9008 22.0488 11.5492C22.4004 11.1975 22.8773 11 23.3746 11C23.8719 11 24.3488 11.1975 24.7004 11.5492C25.0521 11.9008 25.2496 12.3777 25.2496 12.875C25.2496 13.3723 25.0521 13.8492 24.7004 14.2008C24.3488 14.5525 23.8719 14.75 23.3746 14.75C22.8773 14.75 22.4004 14.5525 22.0488 14.2008C21.6972 13.8492 21.4996 13.3723 21.4996 12.875ZM23.5035 20.0117L22.7574 22.9922L24.6988 24.9336C25.0504 25.2852 25.2496 25.7617 25.2496 26.2578V29.75C25.2496 30.4414 24.691 31 23.9996 31C23.3082 31 22.7496 30.4414 22.7496 29.75V26.5195L19.8629 23.6328C19.2457 23.0156 18.9957 22.125 19.2027 21.2773L19.9996 17.9961C20.3238 16.6641 21.6676 15.8516 22.9957 16.1836C23.7379 16.3711 24.3863 16.8242 24.8082 17.4609L25.9176 19.125H27.1246V18.1875C27.1246 17.668 27.5426 17.25 28.0621 17.25C28.5817 17.25 28.9996 17.668 28.9996 18.1875V20.3672C28.9996 20.3711 28.9996 20.375 28.9996 20.375V20.3828V30.0625C28.9996 30.582 28.5817 31 28.0621 31C27.5426 31 27.1246 30.582 27.1246 30.0625V21.625H25.5856C24.9606 21.625 24.3746 21.3125 24.027 20.7891L23.5074 20.0078L23.5035 20.0117ZM17.1676 29.4336L18.5817 24.0469C18.6988 24.2109 18.8317 24.3672 18.9762 24.5117L20.6129 26.1484L19.5817 30.0664C19.4059 30.7344 18.7223 31.1328 18.0543 30.957C17.3863 30.7812 16.9879 30.0977 17.1637 29.4297L17.1676 29.4336ZM19.3356 15.918L17.9606 21.4102C17.8434 21.8828 17.3785 22.1875 16.8981 22.1094L15.027 21.7969C14.4801 21.707 14.1324 21.1602 14.277 20.625L15.2457 17.0547C15.6168 15.6953 16.8512 14.75 18.2613 14.75H18.4254C19.0348 14.75 19.484 15.3242 19.3356 15.9141V15.918Z" fill="#525252"/>
</g>
<defs>
<clipPath id="clip0_2339_937">
<path d="M14 11H29V31H14V11Z" fill="white"/>
</clipPath>
</defs>
</svg>
