<svg width="54" height="48" viewBox="0 0 54 48" fill="none" xmlns="http://www.w3.org/2000/svg">
<path d="M30 0C43.2548 0 54 10.7452 54 24C54 37.2548 43.2548 48 30 48H24C10.7452 48 0 37.2548 0 24C0 10.7452 10.7452 9.66386e-08 24 0H30Z" fill="#CCDFF9"/>
<path d="M30 0C43.2548 0 54 10.7452 54 24C54 37.2548 43.2548 48 30 48H24C10.7452 48 0 37.2548 0 24C0 10.7452 10.7452 9.66386e-08 24 0H30Z" stroke="#CCDFF9"/>
<path d="M42 39H12V10H42V39Z" stroke="#CCDFF9"/>
<g clip-path="url(#clip0_2339_972)">
<path d="M27 12C27.8297 12 28.5 12.6703 28.5 13.5V16.5H34.125C35.9906 16.5 37.5 18.0094 37.5 19.875V32.625C37.5 34.4906 35.9906 36 34.125 36H19.875C18.0094 36 16.5 34.4906 16.5 32.625V19.875C16.5 18.0094 18.0094 16.5 19.875 16.5H25.5V13.5C25.5 12.6703 26.1703 12 27 12ZM21.75 30C21.3375 30 21 30.3375 21 30.75C21 31.1625 21.3375 31.5 21.75 31.5H23.25C23.6625 31.5 24 31.1625 24 30.75C24 30.3375 23.6625 30 23.25 30H21.75ZM26.25 30C25.8375 30 25.5 30.3375 25.5 30.75C25.5 31.1625 25.8375 31.5 26.25 31.5H27.75C28.1625 31.5 28.5 31.1625 28.5 30.75C28.5 30.3375 28.1625 30 27.75 30H26.25ZM30.75 30C30.3375 30 30 30.3375 30 30.75C30 31.1625 30.3375 31.5 30.75 31.5H32.25C32.6625 31.5 33 31.1625 33 30.75C33 30.3375 32.6625 30 32.25 30H30.75ZM24.375 24C24.375 23.5027 24.1775 23.0258 23.8258 22.6742C23.4742 22.3225 22.9973 22.125 22.5 22.125C22.0027 22.125 21.5258 22.3225 21.1742 22.6742C20.8225 23.0258 20.625 23.5027 20.625 24C20.625 24.4973 20.8225 24.9742 21.1742 25.3258C21.5258 25.6775 22.0027 25.875 22.5 25.875C22.9973 25.875 23.4742 25.6775 23.8258 25.3258C24.1775 24.9742 24.375 24.4973 24.375 24ZM31.5 25.875C31.9973 25.875 32.4742 25.6775 32.8258 25.3258C33.1775 24.9742 33.375 24.4973 33.375 24C33.375 23.5027 33.1775 23.0258 32.8258 22.6742C32.4742 22.3225 31.9973 22.125 31.5 22.125C31.0027 22.125 30.5258 22.3225 30.1742 22.6742C29.8225 23.0258 29.625 23.5027 29.625 24C29.625 24.4973 29.8225 24.9742 30.1742 25.3258C30.5258 25.6775 31.0027 25.875 31.5 25.875ZM14.25 22.5H15V31.5H14.25C13.0078 31.5 12 30.4922 12 29.25V24.75C12 23.5078 13.0078 22.5 14.25 22.5ZM39.75 22.5C40.9922 22.5 42 23.5078 42 24.75V29.25C42 30.4922 40.9922 31.5 39.75 31.5H39V22.5H39.75Z" fill="#005FE2"/>
</g>
<defs>
<clipPath id="clip0_2339_972">
<path d="M12 12H42V36H12V12Z" fill="white"/>
</clipPath>
</defs>
</svg>
