<svg width="42" height="42" viewBox="0 0 42 42" fill="none" xmlns="http://www.w3.org/2000/svg">
<path d="M34 0C38.4183 0 42 3.58172 42 8V34C42 38.4183 38.4183 42 34 42H8C3.58172 42 8.05346e-08 38.4183 0 34V8C0 3.58172 3.58172 8.0532e-08 8 0H34Z" fill="#CCDFF9"/>
<path d="M34 0C38.4183 0 42 3.58172 42 8V34C42 38.4183 38.4183 42 34 42H8C3.58172 42 8.05346e-08 38.4183 0 34V8C0 3.58172 3.58172 8.0532e-08 8 0H34Z" stroke="#CCDFF9"/>
<path d="M27.5 31H15V11H27.5V31Z" stroke="#CCDFF9"/>
<g clip-path="url(#clip0_2339_926)">
<path d="M21.25 12.875C21.25 12.3777 21.4475 11.9008 21.7992 11.5492C22.1508 11.1975 22.6277 11 23.125 11C23.6223 11 24.0992 11.1975 24.4508 11.5492C24.8025 11.9008 25 12.3777 25 12.875C25 13.3723 24.8025 13.8492 24.4508 14.2008C24.0992 14.5525 23.6223 14.75 23.125 14.75C22.6277 14.75 22.1508 14.5525 21.7992 14.2008C21.4475 13.8492 21.25 13.3723 21.25 12.875ZM19.9414 18.7852C19.9023 18.8008 19.8672 18.8164 19.8281 18.832L19.5156 18.9688C18.875 19.2539 18.3828 19.7969 18.1602 20.4609L18.0586 20.7656C17.8398 21.4219 17.1328 21.7734 16.4766 21.5547C15.8203 21.3359 15.4687 20.6289 15.6875 19.9727L15.7891 19.668C16.2344 18.3359 17.2187 17.25 18.5 16.6797L18.8125 16.543C19.625 16.1836 20.5039 15.9961 21.3945 15.9961C23.1367 15.9961 24.707 17.043 25.375 18.6484L25.9766 20.0898L26.8125 20.5078C27.4297 20.8164 27.6797 21.5664 27.3711 22.1836C27.0625 22.8008 26.3125 23.0508 25.6953 22.7422L24.6484 22.2227C24.2461 22.0195 23.9297 21.6836 23.7578 21.2656L23.3828 20.3672L22.6289 22.9258L24.5625 25.0352C24.7734 25.2656 24.9219 25.543 25 25.8477L25.8984 29.4453C26.0664 30.1133 25.6602 30.793 24.9883 30.9609C24.3164 31.1289 23.6406 30.7227 23.4727 30.0508L22.6133 26.6094L19.8516 23.5977C19.2734 22.9687 19.0586 22.0898 19.2773 21.2656L19.9375 18.7852H19.9414ZM17.6836 26.5469L18.6602 24.1094C18.7422 24.2266 18.8359 24.3359 18.9336 24.4453L20.5234 26.1797L19.957 27.5937C19.8633 27.8281 19.7227 28.043 19.543 28.2227L17.1328 30.6328C16.6445 31.1211 15.8516 31.1211 15.3633 30.6328C14.875 30.1445 14.875 29.3516 15.3633 28.8633L17.6836 26.5469Z" fill="#005FE2"/>
</g>
<defs>
<clipPath id="clip0_2339_926">
<path d="M15 11H27.5V31H15V11Z" fill="white"/>
</clipPath>
</defs>
</svg>
