<svg width="42" height="42" viewBox="0 0 42 42" fill="none" xmlns="http://www.w3.org/2000/svg">
<path d="M34 0C38.4183 0 42 3.58172 42 8V34C42 38.4183 38.4183 42 34 42H8C3.58172 42 8.05346e-08 38.4183 0 34V8C0 3.58172 3.58172 8.0532e-08 8 0H34Z" fill="#F2F4F8"/>
<path d="M34 0C38.4183 0 42 3.58172 42 8V34C42 38.4183 38.4183 42 34 42H8C3.58172 42 8.05346e-08 38.4183 0 34V8C0 3.58172 3.58172 8.0532e-08 8 0H34Z" stroke="#E5E7EB"/>
<path d="M31 31H11V11H31V31Z" stroke="#E5E7EB"/>
<g clip-path="url(#clip0_2339_948)">
<path d="M31 21C31 21.0352 31 21.0703 31 21.1055C30.9844 22.5313 29.6875 23.5 28.2617 23.5H24.4375C23.4023 23.5 22.5625 24.3398 22.5625 25.375C22.5625 25.5078 22.5781 25.6367 22.6016 25.7617C22.6836 26.1602 22.8555 26.543 23.0234 26.9297C23.2617 27.4687 23.4961 28.0039 23.4961 28.5703C23.4961 29.8125 22.6523 30.9414 21.4102 30.9922C21.2734 30.9961 21.1367 31 20.9961 31C15.4766 31 11 26.5234 11 21C11 15.4766 15.4766 11 21 11C26.5234 11 31 15.4766 31 21ZM16 22.25C16 21.9185 15.8683 21.6005 15.6339 21.3661C15.3995 21.1317 15.0815 21 14.75 21C14.4185 21 14.1005 21.1317 13.8661 21.3661C13.6317 21.6005 13.5 21.9185 13.5 22.25C13.5 22.5815 13.6317 22.8995 13.8661 23.1339C14.1005 23.3683 14.4185 23.5 14.75 23.5C15.0815 23.5 15.3995 23.3683 15.6339 23.1339C15.8683 22.8995 16 22.5815 16 22.25ZM16 18.5C16.3315 18.5 16.6495 18.3683 16.8839 18.1339C17.1183 17.8995 17.25 17.5815 17.25 17.25C17.25 16.9185 17.1183 16.6005 16.8839 16.3661C16.6495 16.1317 16.3315 16 16 16C15.6685 16 15.3505 16.1317 15.1161 16.3661C14.8817 16.6005 14.75 16.9185 14.75 17.25C14.75 17.5815 14.8817 17.8995 15.1161 18.1339C15.3505 18.3683 15.6685 18.5 16 18.5ZM22.25 14.75C22.25 14.4185 22.1183 14.1005 21.8839 13.8661C21.6495 13.6317 21.3315 13.5 21 13.5C20.6685 13.5 20.3505 13.6317 20.1161 13.8661C19.8817 14.1005 19.75 14.4185 19.75 14.75C19.75 15.0815 19.8817 15.3995 20.1161 15.6339C20.3505 15.8683 20.6685 16 21 16C21.3315 16 21.6495 15.8683 21.8839 15.6339C22.1183 15.3995 22.25 15.0815 22.25 14.75ZM26 18.5C26.3315 18.5 26.6495 18.3683 26.8839 18.1339C27.1183 17.8995 27.25 17.5815 27.25 17.25C27.25 16.9185 27.1183 16.6005 26.8839 16.3661C26.6495 16.1317 26.3315 16 26 16C25.6685 16 25.3505 16.1317 25.1161 16.3661C24.8817 16.6005 24.75 16.9185 24.75 17.25C24.75 17.5815 24.8817 17.8995 25.1161 18.1339C25.3505 18.3683 25.6685 18.5 26 18.5Z" fill="#525252"/>
</g>
<defs>
<clipPath id="clip0_2339_948">
<path d="M11 11H31V31H11V11Z" fill="white"/>
</clipPath>
</defs>
</svg>
