<svg width="40" height="40" viewBox="0 0 40 40" fill="none" xmlns="http://www.w3.org/2000/svg">
<path d="M20 0C31.0457 0 40 8.95431 40 20C40 31.0457 31.0457 40 20 40C8.95431 40 0 31.0457 0 20C0 8.95431 8.95431 0 20 0Z" fill="#F5F5F5"/>
<path d="M20 0C31.0457 0 40 8.95431 40 20C40 31.0457 31.0457 40 20 40C8.95431 40 0 31.0457 0 20C0 8.95431 8.95431 0 20 0Z" stroke="#CCDFF9"/>
<path d="M29 28H11V12H29V28Z" stroke="#CCDFF9"/>
<path d="M29 28H11V12H29V28Z" stroke="#CCDFF9"/>
<path d="M20 12C24.2 12 27 13.1 27 14.5V15V16C27.5531 16 28 16.4469 28 17V19C28 19.5531 27.5531 20 27 20V25C27 25.5531 26.5531 26 26 26V27C26 27.5531 25.5531 28 25 28H24C23.4469 28 23 27.5531 23 27V26H17V27C17 27.5531 16.5531 28 16 28H15C14.4469 28 14 27.5531 14 27V26C13.4469 26 13 25.5531 13 25V20C12.4469 20 12 19.5531 12 19V17C12 16.4469 12.4469 16 13 16V15V14.5C13 13.1 15.8 12 20 12ZM15 17V20C15 20.5531 15.4469 21 16 21H19.5V16H16C15.4469 16 15 16.4469 15 17ZM20.5 21H24C24.5531 21 25 20.5531 25 20V17C25 16.4469 24.5531 16 24 16H20.5V21ZM15.5 24.5C15.7652 24.5 16.0196 24.3946 16.2071 24.2071C16.3946 24.0196 16.5 23.7652 16.5 23.5C16.5 23.2348 16.3946 22.9804 16.2071 22.7929C16.0196 22.6054 15.7652 22.5 15.5 22.5C15.2348 22.5 14.9804 22.6054 14.7929 22.7929C14.6054 22.9804 14.5 23.2348 14.5 23.5C14.5 23.7652 14.6054 24.0196 14.7929 24.2071C14.9804 24.3946 15.2348 24.5 15.5 24.5ZM24.5 24.5C24.7652 24.5 25.0196 24.3946 25.2071 24.2071C25.3946 24.0196 25.5 23.7652 25.5 23.5C25.5 23.2348 25.3946 22.9804 25.2071 22.7929C25.0196 22.6054 24.7652 22.5 24.5 22.5C24.2348 22.5 23.9804 22.6054 23.7929 22.7929C23.6054 22.9804 23.5 23.2348 23.5 23.5C23.5 23.7652 23.6054 24.0196 23.7929 24.2071C23.9804 24.3946 24.2348 24.5 24.5 24.5ZM23 14.5C23 14.225 22.775 14 22.5 14H17.5C17.225 14 17 14.225 17 14.5C17 14.775 17.225 15 17.5 15H22.5C22.775 15 23 14.775 23 14.5Z" fill="#525252"/>
</svg>
