<svg width="42" height="42" viewBox="0 0 42 42" fill="none" xmlns="http://www.w3.org/2000/svg">
<path d="M34 0C38.4183 0 42 3.58172 42 8V34C42 38.4183 38.4183 42 34 42H8C3.58172 42 8.05346e-08 38.4183 0 34V8C0 3.58172 3.58172 8.0532e-08 8 0H34Z" fill="#F2F4F8"/>
<path d="M34 0C38.4183 0 42 3.58172 42 8V34C42 38.4183 38.4183 42 34 42H8C3.58172 42 8.05346e-08 38.4183 0 34V8C0 3.58172 3.58172 8.0532e-08 8 0H34Z" stroke="#E5E7EB"/>
<path d="M32.5 31H10V11H32.5V31Z" stroke="#E5E7EB"/>
<g clip-path="url(#clip0_2339_919)">
<path d="M11.8594 22.7343L18.918 29.3242C19.2109 29.5976 19.5977 29.75 20 29.75C20.4023 29.75 20.7891 29.5976 21.082 29.3242L21.1836 29.2304C20.4375 28.1328 20 26.8047 20 25.375C20 21.5781 23.0781 18.5 26.875 18.5C27.9805 18.5 29.0234 18.7617 29.9492 19.2226C29.9844 18.9687 30 18.7148 30 18.457V18.2304C30 15.5 28.0273 13.1718 25.3359 12.7226C23.5547 12.4257 21.7422 13.0078 20.4688 14.2812L20 14.75L19.5312 14.2812C18.2578 13.0078 16.4453 12.4257 14.6641 12.7226C11.9727 13.1718 10 15.5 10 18.2304V18.457C10 20.0781 10.6719 21.6289 11.8594 22.7343ZM26.875 31C28.3668 31 29.7976 30.4073 30.8525 29.3524C31.9074 28.2975 32.5 26.8668 32.5 25.375C32.5 23.8831 31.9074 22.4524 30.8525 21.3975C29.7976 20.3426 28.3668 19.75 26.875 19.75C25.3832 19.75 23.9524 20.3426 22.8975 21.3975C21.8426 22.4524 21.25 23.8831 21.25 25.375C21.25 26.8668 21.8426 28.2975 22.8975 29.3524C23.9524 30.4073 25.3832 31 26.875 31ZM27.5 22.875V24.75H29.375C29.7188 24.75 30 25.0312 30 25.375C30 25.7187 29.7188 26 29.375 26H27.5V27.875C27.5 28.2187 27.2188 28.5 26.875 28.5C26.5312 28.5 26.25 28.2187 26.25 27.875V26H24.375C24.0312 26 23.75 25.7187 23.75 25.375C23.75 25.0312 24.0312 24.75 24.375 24.75H26.25V22.875C26.25 22.5312 26.5312 22.25 26.875 22.25C27.2188 22.25 27.5 22.5312 27.5 22.875Z" fill="#525252"/>
</g>
<defs>
<clipPath id="clip0_2339_919">
<path d="M10 11H32.5V31H10V11Z" fill="white"/>
</clipPath>
</defs>
</svg>
