<svg width="42" height="42" viewBox="0 0 42 42" fill="none" xmlns="http://www.w3.org/2000/svg">
<path d="M34 0C38.4183 0 42 3.58172 42 8V34C42 38.4183 38.4183 42 34 42H8C3.58172 42 8.05346e-08 38.4183 0 34V8C0 3.58172 3.58172 8.0532e-08 8 0H34Z" fill="#F2F4F8"/>
<path d="M34 0C38.4183 0 42 3.58172 42 8V34C42 38.4183 38.4183 42 34 42H8C3.58172 42 8.05346e-08 38.4183 0 34V8C0 3.58172 3.58172 8.0532e-08 8 0H34Z" stroke="#E5E7EB"/>
<path d="M29.5 31H12V11H29.5V31Z" stroke="#E5E7EB"/>
<g clip-path="url(#clip0_2339_954)">
<path d="M28.25 11C27.625 11 23.25 12.25 23.25 17.875V22.25C23.25 23.6289 24.3711 24.75 25.75 24.75H27V29.75C27 30.4414 27.5586 31 28.25 31C28.9414 31 29.5 30.4414 29.5 29.75V24.75V20.375V12.25C29.5 11.5586 28.9414 11 28.25 11ZM14.5 11.625C14.5 11.3047 14.2617 11.0391 13.9414 11.0039C13.6211 10.9688 13.3359 11.1797 13.2656 11.4883L12.082 16.8125C12.0273 17.0586 12 17.3086 12 17.5586C12 19.3516 13.3711 20.8242 15.125 20.9844V29.75C15.125 30.4414 15.6836 31 16.375 31C17.0664 31 17.625 30.4414 17.625 29.75V20.9844C19.3789 20.8242 20.75 19.3516 20.75 17.5586C20.75 17.3086 20.7227 17.0586 20.668 16.8125L19.4844 11.4883C19.4141 11.1758 19.1211 10.9688 18.8047 11.0039C18.4883 11.0391 18.25 11.3047 18.25 11.625V16.8672C18.25 17.0781 18.0781 17.25 17.8672 17.25C17.668 17.25 17.5039 17.0977 17.4844 16.8984L16.9961 11.5703C16.9688 11.2461 16.6992 11 16.375 11C16.0508 11 15.7812 11.2461 15.7539 11.5703L15.2695 16.8984C15.25 17.0977 15.0859 17.25 14.8867 17.25C14.6758 17.25 14.5039 17.0781 14.5039 16.8672V11.625H14.5ZM16.3867 17.5625H16.375H16.3633L16.375 17.5352L16.3867 17.5625Z" fill="#525252"/>
</g>
<defs>
<clipPath id="clip0_2339_954">
<path d="M12 11H29.5V31H12V11Z" fill="white"/>
</clipPath>
</defs>
</svg>
