<svg width="42" height="42" viewBox="0 0 42 42" fill="none" xmlns="http://www.w3.org/2000/svg">
<path d="M34 0C38.4183 0 42 3.58172 42 8V34C42 38.4183 38.4183 42 34 42H8C3.58172 42 8.05346e-08 38.4183 0 34V8C0 3.58172 3.58172 8.0532e-08 8 0H34Z" fill="#CCDFF9"/>
<path d="M34 0C38.4183 0 42 3.58172 42 8V34C42 38.4183 38.4183 42 34 42H8C3.58172 42 8.05346e-08 38.4183 0 34V8C0 3.58172 3.58172 8.0532e-08 8 0H34Z" stroke="#CCDFF9"/>
<path d="M31 31H11V11H31V31Z" stroke="#CCDFF9"/>
<path d="M31 31H11V11H31V31Z" stroke="#CCDFF9"/>
<path d="M12.8594 22.7343L19.918 29.3242C20.2109 29.5976 20.5977 29.75 21 29.75C21.4023 29.75 21.7891 29.5976 22.082 29.3242L29.1406 22.7343C30.3281 21.6289 31 20.0781 31 18.457V18.2304C31 15.5 29.0273 13.1718 26.3359 12.7226C24.5547 12.4257 22.7422 13.0078 21.4688 14.2812L21 14.75L20.5312 14.2812C19.2578 13.0078 17.4453 12.4257 15.6641 12.7226C12.9727 13.1718 11 15.5 11 18.2304V18.457C11 20.0781 11.6719 21.6289 12.8594 22.7343Z" fill="#005FE2"/>
</svg>
