<svg width="42" height="42" viewBox="0 0 42 42" fill="none" xmlns="http://www.w3.org/2000/svg">
<path d="M34 0C38.4183 0 42 3.58172 42 8V34C42 38.4183 38.4183 42 34 42H8C3.58172 42 8.05346e-08 38.4183 0 34V8C0 3.58172 3.58172 8.0532e-08 8 0H34Z" fill="#F2F4F8"/>
<path d="M34 0C38.4183 0 42 3.58172 42 8V34C42 38.4183 38.4183 42 34 42H8C3.58172 42 8.05346e-08 38.4183 0 34V8C0 3.58172 3.58172 8.0532e-08 8 0H34Z" stroke="#E5E7EB"/>
<g clip-path="url(#clip0_2339_914)">
<path d="M22.105 11.1563L33.355 17.4063C33.9566 17.7422 34.1753 18.5039 33.8394 19.1055C33.5034 19.707 32.7417 19.9258 32.1402 19.5898L21.4995 13.6797L10.855 19.5938C10.2534 19.9297 9.49172 19.7109 9.15578 19.1094C8.81984 18.5078 9.03859 17.7461 9.64016 17.4102L20.8941 11.1563C21.273 10.9453 21.73 10.9453 22.1089 11.1563H22.105ZM21.4995 17.25C21.9139 17.25 22.3114 17.4146 22.6044 17.7076C22.8974 18.0007 23.062 18.3981 23.062 18.8125C23.062 19.2269 22.8974 19.6243 22.6044 19.9174C22.3114 20.2104 21.9139 20.375 21.4995 20.375C21.0851 20.375 20.6877 20.2104 20.3947 19.9174C20.1017 19.6243 19.937 19.2269 19.937 18.8125C19.937 18.3981 20.1017 18.0007 20.3947 17.7076C20.6877 17.4146 21.0851 17.25 21.4995 17.25ZM14.6245 21C15.0389 21 15.4364 21.1646 15.7294 21.4576C16.0224 21.7507 16.187 22.1481 16.187 22.5625C16.187 22.9769 16.0224 23.3743 15.7294 23.6674C15.4364 23.9604 15.0389 24.125 14.6245 24.125C14.2101 24.125 13.8127 23.9604 13.5197 23.6674C13.2267 23.3743 13.062 22.9769 13.062 22.5625C13.062 22.1481 13.2267 21.7507 13.5197 21.4576C13.8127 21.1646 14.2101 21 14.6245 21ZM26.812 22.5625C26.812 22.1481 26.9767 21.7507 27.2697 21.4576C27.5627 21.1646 27.9601 21 28.3745 21C28.7889 21 29.1864 21.1646 29.4794 21.4576C29.7724 21.7507 29.937 22.1481 29.937 22.5625C29.937 22.9769 29.7724 23.3743 29.4794 23.6674C29.1864 23.9604 28.7889 24.125 28.3745 24.125C27.9601 24.125 27.5627 23.9604 27.2697 23.6674C26.9767 23.3743 26.812 22.9769 26.812 22.5625ZM17.8628 30.1953L16.812 28.2461V29.75C16.812 30.4414 16.2534 31 15.562 31H13.687C12.9956 31 12.437 30.4414 12.437 29.75V28.2461L11.3863 30.1953C11.1402 30.6523 10.5738 30.8203 10.1167 30.5781C9.65969 30.3359 9.49172 29.7656 9.73391 29.3086L11.2144 26.5625C11.812 25.4492 12.9761 24.7539 14.2417 24.7539H15.0034C15.6402 24.7539 16.2495 24.9297 16.7769 25.2461L18.0894 22.8125C18.687 21.6992 19.8511 21.0039 21.1167 21.0039H21.8784C23.1441 21.0039 24.3042 21.6992 24.9058 22.8125L26.2183 25.2461C26.7456 24.9297 27.355 24.7539 27.9917 24.7539H28.7534C30.0191 24.7539 31.1792 25.4492 31.7808 26.5625L33.2613 29.3086C33.5073 29.7656 33.3355 30.332 32.8784 30.5781C32.4214 30.8242 31.855 30.6523 31.6089 30.1953L30.562 28.2461V29.75C30.562 30.4414 30.0034 31 29.312 31H27.437C26.7456 31 26.187 30.4414 26.187 29.75V28.2461L25.1363 30.1953C24.8902 30.6523 24.3238 30.8203 23.8667 30.5781C23.4097 30.3359 23.2417 29.7656 23.4839 29.3086L24.9019 26.6719C24.8355 26.6055 24.7769 26.5312 24.7339 26.4453L23.687 24.4961V26.625C23.687 27.3164 23.1284 27.875 22.437 27.875H20.562C19.8706 27.875 19.312 27.3164 19.312 26.625V24.4961L18.2613 26.4453C18.2144 26.5312 18.1597 26.6055 18.0933 26.6719L19.5113 29.3086C19.7573 29.7656 19.5855 30.332 19.1284 30.5781C18.6714 30.8242 18.105 30.6523 17.8589 30.1953H17.8628Z" fill="#525252"/>
</g>
<defs>
<clipPath id="clip0_2339_914">
<path d="M9 11H34V31H9V11Z" fill="white"/>
</clipPath>
</defs>
</svg>
