<svg width="42" height="42" viewBox="0 0 42 42" fill="none" xmlns="http://www.w3.org/2000/svg">
<path d="M34 0C38.4183 0 42 3.58172 42 8V34C42 38.4183 38.4183 42 34 42H8C3.58172 42 8.05346e-08 38.4183 0 34V8C0 3.58172 3.58172 8.0532e-08 8 0H34Z" fill="#F2F4F8"/>
<path d="M34 0C38.4183 0 42 3.58172 42 8V34C42 38.4183 38.4183 42 34 42H8C3.58172 42 8.05346e-08 38.4183 0 34V8C0 3.58172 3.58172 8.0532e-08 8 0H34Z" stroke="#E5E7EB"/>
<path d="M31 31H11V11H31V31Z" stroke="#E5E7EB"/>
<g clip-path="url(#clip0_2339_966)">
<path d="M20.3793 11.1641C20.7622 10.9453 21.2348 10.9453 21.6215 11.1641L28.3325 14.9961L28.5004 15.0625V15.0977L30.3715 16.168C30.8637 16.4492 31.1059 17.0273 30.9614 17.5742C30.8168 18.1211 30.3207 18.5039 29.7543 18.5039H12.2504C11.684 18.5039 11.1879 18.1211 11.0434 17.5742C10.8989 17.0273 11.1411 16.4492 11.6332 16.168L13.5004 15.0977V15.0625L13.6723 15L20.3793 11.1641ZM13.5004 19.75H16.0004V27.25H17.5629V19.75H20.0629V27.25H21.9379V19.75H24.4379V27.25H26.0004V19.75H28.5004V27.418C28.5239 27.4297 28.5473 27.4453 28.5707 27.4609L30.4457 28.7109C30.9028 29.0156 31.1098 29.5859 30.9497 30.1133C30.7895 30.6406 30.3012 31 29.7504 31H12.2504C11.6997 31 11.2153 30.6406 11.0551 30.1133C10.895 29.5859 11.0981 29.0156 11.559 28.7109L13.434 27.4609C13.4575 27.4453 13.4809 27.4336 13.5043 27.418V19.75H13.5004Z" fill="#525252"/>
</g>
<defs>
<clipPath id="clip0_2339_966">
<path d="M11 11H31V31H11V11Z" fill="white"/>
</clipPath>
</defs>
</svg>
