<svg width="42" height="42" viewBox="0 0 42 42" fill="none" xmlns="http://www.w3.org/2000/svg">
<path d="M34 0C38.4183 0 42 3.58172 42 8V34C42 38.4183 38.4183 42 34 42H8C3.58172 42 8.05346e-08 38.4183 0 34V8C0 3.58172 3.58172 8.0532e-08 8 0H34Z" fill="#F2F4F8"/>
<path d="M34 0C38.4183 0 42 3.58172 42 8V34C42 38.4183 38.4183 42 34 42H8C3.58172 42 8.05346e-08 38.4183 0 34V8C0 3.58172 3.58172 8.0532e-08 8 0H34Z" stroke="#E5E7EB"/>
<path d="M31 31H11V11H31V31Z" stroke="#E5E7EB"/>
<path d="M21.625 14.749C18.5547 14.749 15.957 16.7608 15.0742 19.5342C16.3867 18.8701 17.8672 18.499 19.4375 18.499H22.875C23.2188 18.499 23.5 18.7803 23.5 19.124C23.5 19.4678 23.2188 19.749 22.875 19.749H22.25H19.4375C18.7891 19.749 18.1602 19.8233 17.5547 19.96C16.543 20.1904 15.6016 20.6006 14.7656 21.1592C12.4961 22.6709 11 25.2529 11 28.1865V28.8115C11 29.3311 11.418 29.749 11.9375 29.749C12.457 29.749 12.875 29.3311 12.875 28.8115V28.1865C12.875 26.2842 13.6836 24.5733 14.9766 23.374C15.75 26.3233 18.4336 28.499 21.625 28.499H21.6641C26.8242 28.4717 31 23.3858 31 17.1162C31 15.4522 30.707 13.8701 30.1758 12.4443C30.0742 12.1748 29.6797 12.1865 29.543 12.4404C28.8086 13.8154 27.3555 14.749 25.6875 14.749H21.625Z" fill="#525252"/>
</svg>
