<svg width="42" height="42" viewBox="0 0 42 42" fill="none" xmlns="http://www.w3.org/2000/svg">
<path d="M34 0C38.4183 0 42 3.58172 42 8V34C42 38.4183 38.4183 42 34 42H8C3.58172 42 8.05346e-08 38.4183 0 34V8C0 3.58172 3.58172 8.0532e-08 8 0H34Z" fill="#F2F4F8"/>
<path d="M34 0C38.4183 0 42 3.58172 42 8V34C42 38.4183 38.4183 42 34 42H8C3.58172 42 8.05346e-08 38.4183 0 34V8C0 3.58172 3.58172 8.0532e-08 8 0H34Z" stroke="#E5E7EB"/>
<path d="M31 31H11V11H31V31Z" stroke="#E5E7EB"/>
<path d="M31 31H11V11H31V31Z" stroke="#E5E7EB"/>
<path d="M16.8242 13.5313L16.418 14.75H13.5C12.1211 14.75 11 15.8711 11 17.25V27.25C11 28.6289 12.1211 29.75 13.5 29.75H28.5C29.8789 29.75 31 28.6289 31 27.25V17.25C31 15.8711 29.8789 14.75 28.5 14.75H25.582L25.1758 13.5313C24.9219 12.7656 24.207 12.25 23.3984 12.25H18.6016C17.793 12.25 17.0781 12.7656 16.8242 13.5313ZM21 18.5C21.9946 18.5 22.9484 18.8951 23.6517 19.5983C24.3549 20.3016 24.75 21.2554 24.75 22.25C24.75 23.2446 24.3549 24.1984 23.6517 24.9017C22.9484 25.6049 21.9946 26 21 26C20.0054 26 19.0516 25.6049 18.3483 24.9017C17.6451 24.1984 17.25 23.2446 17.25 22.25C17.25 21.2554 17.6451 20.3016 18.3483 19.5983C19.0516 18.8951 20.0054 18.5 21 18.5Z" fill="#525252"/>
</svg>
