<svg width="51" height="48" viewBox="0 0 51 48" fill="none" xmlns="http://www.w3.org/2000/svg">
<path d="M27 0C40.2548 0 51 10.7452 51 24C51 37.2548 40.2548 48 27 48H24C10.7452 48 0 37.2548 0 24C0 10.7452 10.7452 4.83193e-08 24 0H27Z" fill="#E5E7EB"/>
<path d="M27 0C40.2548 0 51 10.7452 51 24C51 37.2548 40.2548 48 27 48H24C10.7452 48 0 37.2548 0 24C0 10.7452 10.7452 4.83193e-08 24 0H27Z" stroke="#E5E7EB"/>
<path d="M39 39H12V10H39V39Z" stroke="#E5E7EB"/>
<path d="M39 36H12V12H39V36Z" stroke="#E5E7EB"/>
<path d="M30 34.3166L21 31.7432V13.6823L30 16.2557V34.3166ZM31.5 34.2604V16.1432L37.4578 13.7573C38.1984 13.462 39 14.0057 39 14.8026V30.4963C39 30.9557 38.7188 31.3682 38.2922 31.5416L31.5 34.2557V34.2604ZM12.7078 16.4573L19.5 13.7432V31.8557L13.5422 34.2416C12.8016 34.537 12 33.9932 12 33.1963V17.5026C12 17.0432 12.2812 16.6307 12.7078 16.4573Z" fill="#404040"/>
</svg>
