<svg width="190" height="86" viewBox="0 0 190 86" fill="none" xmlns="http://www.w3.org/2000/svg">
<rect width="38.0918" height="8.08007" transform="matrix(1 0 -0.292372 0.956305 16.5186 1.10352)" fill="url(#paint0_linear_56_953)"/>
<rect width="38.0918" height="7.84921" transform="matrix(1 0 -0.292372 0.956305 13.4131 11.2598)" fill="url(#paint1_linear_56_953)"/>
<rect width="37.8871" height="8.01119" transform="matrix(1.01064 -0.0372749 -0.263108 0.955899 10.1523 21.9258)" fill="url(#paint2_linear_56_953)"/>
<rect width="25.3945" height="7.38749" transform="matrix(1 0 -0.292372 0.956305 61.0742 1.10352)" fill="url(#paint3_linear_56_953)"/>
<rect width="16.6219" height="9.00351" transform="matrix(0.292372 -0.956305 1 -4.18014e-08 72.4707 17.4414)" fill="url(#paint4_linear_56_953)"/>
<rect width="29.2099" height="8.68402" transform="matrix(0.292372 -0.956305 1 -4.18014e-08 8.10742 29.4434)" fill="url(#paint5_linear_56_953)"/>
<rect width="16.6219" height="9.00351" transform="matrix(0.292372 -0.956305 1 -4.18014e-08 48.25 43.0508)" fill="url(#paint6_linear_56_953)"/>
<rect width="16.6219" height="9.00351" transform="matrix(0.292372 -0.956305 1 -4.18014e-08 79.6465 43.0508)" fill="url(#paint7_linear_56_953)"/>
<rect width="27.934" height="9.00351" transform="matrix(0.292372 -0.956305 1 -4.18014e-08 128.735 26.7129)" fill="url(#paint8_linear_56_953)"/>
<rect width="27.934" height="9.00351" transform="matrix(0.292372 -0.956305 1 -4.18014e-08 84.6416 26.7129)" fill="url(#paint9_linear_56_953)"/>
<rect width="25.3945" height="7.38749" transform="matrix(1 0 -0.292372 0.956305 58.4414 9.71484)" fill="url(#paint10_linear_56_953)"/>
<rect width="18.0276" height="9.00351" transform="matrix(0.292372 -0.956305 1 -4.18014e-08 53.2441 26.7129)" fill="url(#paint11_linear_56_953)"/>
<rect width="33.0129" height="6.00234" transform="matrix(1 0 -0.292372 0.956305 53.6982 37.3105)" fill="url(#paint12_linear_56_953)"/>
<rect width="33.0129" height="6.00234" transform="matrix(1 0 -0.292372 0.956305 56.1279 29.3633)" fill="url(#paint13_linear_56_953)"/>
<rect width="45.4793" height="7.38749" transform="matrix(1 0 -0.292372 0.956305 2.16016 35.9863)" fill="url(#paint14_linear_56_953)"/>
<rect width="33.0129" height="7.38749" transform="matrix(1 0 -0.292372 0.956305 55.6738 18.7656)" fill="url(#paint15_linear_56_953)"/>
<rect width="21.239" height="7.38749" transform="matrix(1 0 -0.292372 0.956305 107.015 1.10352)" fill="url(#paint16_linear_56_953)"/>
<rect width="16.391" height="7.38749" transform="matrix(1 0 -0.292372 0.956305 127.444 3.75391)" fill="url(#paint17_linear_56_953)"/>
<path fill-rule="evenodd" clip-rule="evenodd" d="M107.13 27.1543C102.54 27.1543 97.7314 30.7126 96.3895 35.1021C95.0475 39.4915 97.6805 43.0499 102.271 43.0499H125.126C129.716 43.0499 134.524 39.4915 135.866 35.1021C137.208 30.7126 134.575 27.1543 129.985 27.1543H107.13ZM105.714 33.8205C104.973 33.8205 104.198 34.3944 103.981 35.1024C103.765 35.8103 104.189 36.3843 104.93 36.3843H126.542C127.283 36.3843 128.058 35.8103 128.275 35.1024C128.491 34.3944 128.066 33.8205 127.326 33.8205H105.714Z" fill="url(#paint18_linear_56_953)"/>
<rect width="17.0836" height="7.38749" transform="matrix(1 0 -0.292372 0.956305 121.569 13.9082)" fill="url(#paint19_linear_56_953)"/>
<rect width="23.0859" height="7.61835" transform="matrix(-0.292372 0.956305 -1 -4.18014e-08 128.254 1.10352)" fill="url(#paint20_linear_56_953)"/>
<rect width="21.4257" height="7.38749" transform="matrix(1.03303 -0.146829 -0.135367 0.944966 100.268 19.668)" fill="url(#paint21_linear_56_953)"/>
<path d="M152.571 37.7285L163.92 1.11331L172.923 1.11331L163.17 33.0148L152.571 37.7285Z" fill="url(#paint22_linear_56_953)"/>
<rect width="45.0175" height="9.00351" transform="matrix(0.292372 -0.956305 1 -4.18014e-08 167.835 43.0508)" fill="url(#paint23_linear_56_953)"/>
<rect width="21.239" height="7.38749" transform="matrix(1 0 -0.292372 0.956305 151.719 1.10352)" fill="url(#paint24_linear_56_953)"/>
<path d="M139.839 34.959L161.958 25.6602L163.17 33.0275L142.56 42.2582L139.839 34.959Z" fill="url(#paint25_linear_56_953)"/>
<path d="M45.9373 79.207H39.1164L45.6739 59.025H37.7162L39.3556 53.9795H62.0919L60.4525 59.025H52.4948L45.9373 79.207Z" fill="url(#paint26_linear_56_953)"/>
<path d="M69.2149 65.3319C67.6233 65.3319 65.8642 65.6923 63.9374 66.4131L59.7804 79.207H53.149L59.3552 60.1062H65.2287L64.8465 62.4488C67.6046 60.6468 70.171 59.7458 72.5457 59.7458H74.2509L72.4359 65.3319H69.2149Z" fill="url(#paint27_linear_56_953)"/>
<path d="M83.7505 60.827L77.7785 79.207H71.1471L75.5383 65.6923H72.6962L74.2771 60.827H83.7505ZM79.4611 53.6191H86.0925L84.4531 58.6646H77.8217L79.4611 53.6191Z" fill="url(#paint28_linear_56_953)"/>
<path d="M96.247 64.9715C94.9081 64.9715 93.3143 65.2118 91.4655 65.6923L88.6552 74.3417H94.3393C95.3498 74.3417 96.0111 73.8612 96.3234 72.9001L98.4897 66.2329C98.6068 65.8725 98.5781 65.5722 98.4035 65.3319C98.229 65.0916 97.9522 64.9715 97.5733 64.9715H96.247ZM87.0743 79.207L85.0837 85.3337H78.4522L86.6491 60.1062H92.5227L92.3161 61.9082C93.7455 61.1634 95.1337 60.6228 96.4809 60.2864C97.8611 59.926 98.9807 59.7458 99.8396 59.7458H101.545C103.263 59.7458 104.479 60.2383 105.195 61.2234C105.911 62.2085 106.003 63.5179 105.472 65.1517L102.779 73.4407C102.194 75.2427 101.19 76.6602 99.768 77.6933C98.3791 78.7024 96.7373 79.207 94.8426 79.207H87.0743Z" fill="url(#paint29_linear_56_953)"/>
<path d="M126.466 78.6664C120.359 79.2671 114.83 79.5674 109.879 79.5674C107.403 79.5674 105.764 79.0148 104.961 77.9096C104.158 76.8044 104.139 75.0745 104.904 72.7199L108.651 61.1874C109.47 58.6646 110.657 56.8386 112.212 55.7094C113.799 54.5562 115.919 53.9795 118.572 53.9795H132.213L130.574 59.025H118.448C116.932 59.025 115.94 59.7458 115.472 61.1874L111.725 72.7199C111.545 73.2725 111.565 73.717 111.784 74.0534C112.036 74.3657 112.453 74.5219 113.034 74.5219C115.939 74.5219 118.611 74.4618 121.05 74.3417L122.748 69.116H117.822L119.227 64.7913H130.974L126.466 78.6664Z" fill="url(#paint30_linear_56_953)"/>
<path d="M151.862 78.6664C145.755 79.2671 140.226 79.5674 135.275 79.5674C132.799 79.5674 131.16 79.0148 130.357 77.9096C129.554 76.8044 129.535 75.0745 130.3 72.7199L134.047 61.1874C134.867 58.6646 136.054 56.8386 137.608 55.7094C139.195 54.5562 141.315 53.9795 143.968 53.9795H157.61L155.97 59.025H143.844C142.328 59.025 141.336 59.7458 140.868 61.1874L137.121 72.7199C136.941 73.2725 136.961 73.717 137.18 74.0534C137.432 74.3657 137.849 74.5219 138.43 74.5219C141.335 74.5219 144.007 74.4618 146.446 74.3417L148.144 69.116H143.218L144.623 64.7913H156.37L151.862 78.6664Z" fill="url(#paint31_linear_56_953)"/>
<defs>
<linearGradient id="paint0_linear_56_953" x1="0" y1="4.04004" x2="38.0918" y2="4.04004" gradientUnits="userSpaceOnUse">
<stop stop-color="#F9F9F9"/>
<stop offset="1" stop-color="#F9F9F9"/>
</linearGradient>
<linearGradient id="paint1_linear_56_953" x1="0" y1="3.92461" x2="38.0918" y2="3.92461" gradientUnits="userSpaceOnUse">
<stop stop-color="#F9F9F9"/>
<stop offset="1" stop-color="#F9F9F9"/>
</linearGradient>
<linearGradient id="paint2_linear_56_953" x1="0" y1="4.0056" x2="37.8871" y2="4.0056" gradientUnits="userSpaceOnUse">
<stop stop-color="#F9F9F9"/>
<stop offset="1" stop-color="#F9F9F9"/>
</linearGradient>
<linearGradient id="paint3_linear_56_953" x1="0" y1="3.69375" x2="25.3945" y2="3.69375" gradientUnits="userSpaceOnUse">
<stop stop-color="#F9F9F9"/>
<stop offset="1" stop-color="#F9F9F9"/>
</linearGradient>
<linearGradient id="paint4_linear_56_953" x1="0" y1="4.50175" x2="16.6219" y2="4.50175" gradientUnits="userSpaceOnUse">
<stop stop-color="#F9F9F9"/>
<stop offset="1" stop-color="#F9F9F9"/>
</linearGradient>
<linearGradient id="paint5_linear_56_953" x1="0" y1="4.34201" x2="29.2099" y2="4.34201" gradientUnits="userSpaceOnUse">
<stop stop-color="#F9F9F9"/>
<stop offset="1" stop-color="#F9F9F9"/>
</linearGradient>
<linearGradient id="paint6_linear_56_953" x1="0" y1="4.50175" x2="16.6219" y2="4.50175" gradientUnits="userSpaceOnUse">
<stop stop-color="#F9F9F9"/>
<stop offset="1" stop-color="#F9F9F9"/>
</linearGradient>
<linearGradient id="paint7_linear_56_953" x1="0" y1="4.50175" x2="16.6219" y2="4.50175" gradientUnits="userSpaceOnUse">
<stop stop-color="#F9F9F9"/>
<stop offset="1" stop-color="#F9F9F9"/>
</linearGradient>
<linearGradient id="paint8_linear_56_953" x1="0" y1="4.50175" x2="27.934" y2="4.50175" gradientUnits="userSpaceOnUse">
<stop stop-color="#F9F9F9"/>
<stop offset="1" stop-color="#F9F9F9"/>
</linearGradient>
<linearGradient id="paint9_linear_56_953" x1="0" y1="4.50175" x2="27.934" y2="4.50175" gradientUnits="userSpaceOnUse">
<stop stop-color="#F9F9F9"/>
<stop offset="1" stop-color="#F9F9F9"/>
</linearGradient>
<linearGradient id="paint10_linear_56_953" x1="0" y1="3.69375" x2="25.3945" y2="3.69375" gradientUnits="userSpaceOnUse">
<stop stop-color="#F9F9F9"/>
<stop offset="1" stop-color="#F9F9F9"/>
</linearGradient>
<linearGradient id="paint11_linear_56_953" x1="0" y1="4.50175" x2="18.0276" y2="4.50175" gradientUnits="userSpaceOnUse">
<stop stop-color="#F9F9F9"/>
<stop offset="1" stop-color="#F9F9F9"/>
</linearGradient>
<linearGradient id="paint12_linear_56_953" x1="0" y1="3.00117" x2="33.0129" y2="3.00117" gradientUnits="userSpaceOnUse">
<stop stop-color="#F9F9F9"/>
<stop offset="1" stop-color="#F9F9F9"/>
</linearGradient>
<linearGradient id="paint13_linear_56_953" x1="0" y1="3.00117" x2="33.0129" y2="3.00117" gradientUnits="userSpaceOnUse">
<stop stop-color="#F9F9F9"/>
<stop offset="1" stop-color="#F9F9F9"/>
</linearGradient>
<linearGradient id="paint14_linear_56_953" x1="0" y1="3.69375" x2="45.4793" y2="3.69375" gradientUnits="userSpaceOnUse">
<stop stop-color="#F9F9F9"/>
<stop offset="1" stop-color="#F9F9F9"/>
</linearGradient>
<linearGradient id="paint15_linear_56_953" x1="0" y1="3.69375" x2="33.0129" y2="3.69375" gradientUnits="userSpaceOnUse">
<stop stop-color="#F9F9F9"/>
<stop offset="1" stop-color="#F9F9F9"/>
</linearGradient>
<linearGradient id="paint16_linear_56_953" x1="0" y1="3.69375" x2="21.239" y2="3.69375" gradientUnits="userSpaceOnUse">
<stop stop-color="#F9F9F9"/>
<stop offset="1" stop-color="#F9F9F9"/>
</linearGradient>
<linearGradient id="paint17_linear_56_953" x1="0" y1="3.69375" x2="16.391" y2="3.69375" gradientUnits="userSpaceOnUse">
<stop stop-color="#F9F9F9"/>
<stop offset="1" stop-color="#F9F9F9"/>
</linearGradient>
<linearGradient id="paint18_linear_56_953" x1="96.3895" y1="35.1021" x2="132.492" y2="46.1397" gradientUnits="userSpaceOnUse">
<stop stop-color="#F9F9F9"/>
<stop offset="1" stop-color="#F9F9F9"/>
</linearGradient>
<linearGradient id="paint19_linear_56_953" x1="0" y1="3.69375" x2="17.0836" y2="3.69375" gradientUnits="userSpaceOnUse">
<stop stop-color="#F9F9F9"/>
<stop offset="1" stop-color="#F9F9F9"/>
</linearGradient>
<linearGradient id="paint20_linear_56_953" x1="0" y1="3.80918" x2="23.0859" y2="3.80918" gradientUnits="userSpaceOnUse">
<stop stop-color="#F9F9F9"/>
<stop offset="1" stop-color="#F9F9F9"/>
</linearGradient>
<linearGradient id="paint21_linear_56_953" x1="0" y1="3.69375" x2="21.4257" y2="3.69375" gradientUnits="userSpaceOnUse">
<stop stop-color="#F9F9F9"/>
<stop offset="1" stop-color="#F9F9F9"/>
</linearGradient>
<linearGradient id="paint22_linear_56_953" x1="157.15" y1="37.7285" x2="157.15" y2="1.11331" gradientUnits="userSpaceOnUse">
<stop stop-color="#F9F9F9"/>
<stop offset="1" stop-color="#F9F9F9"/>
</linearGradient>
<linearGradient id="paint23_linear_56_953" x1="0" y1="4.50175" x2="45.0175" y2="4.50175" gradientUnits="userSpaceOnUse">
<stop stop-color="#F9F9F9"/>
<stop offset="1" stop-color="#F9F9F9"/>
</linearGradient>
<linearGradient id="paint24_linear_56_953" x1="0" y1="3.69375" x2="21.239" y2="3.69375" gradientUnits="userSpaceOnUse">
<stop stop-color="#F9F9F9"/>
<stop offset="1" stop-color="#F9F9F9"/>
</linearGradient>
<linearGradient id="paint25_linear_56_953" x1="141.026" y1="38.9431" x2="163.887" y2="32.1307" gradientUnits="userSpaceOnUse">
<stop stop-color="#F9F9F9"/>
<stop offset="1" stop-color="#F9F9F9"/>
</linearGradient>
<linearGradient id="paint26_linear_56_953" x1="34.3203" y1="67.194" x2="145.715" y2="103.388" gradientUnits="userSpaceOnUse">
<stop stop-color="#F9F9F9"/>
<stop offset="1" stop-color="#F9F9F9"/>
</linearGradient>
<linearGradient id="paint27_linear_56_953" x1="34.3203" y1="67.194" x2="145.715" y2="103.388" gradientUnits="userSpaceOnUse">
<stop stop-color="#F9F9F9"/>
<stop offset="1" stop-color="#F9F9F9"/>
</linearGradient>
<linearGradient id="paint28_linear_56_953" x1="34.3203" y1="67.194" x2="145.715" y2="103.388" gradientUnits="userSpaceOnUse">
<stop stop-color="#F9F9F9"/>
<stop offset="1" stop-color="#F9F9F9"/>
</linearGradient>
<linearGradient id="paint29_linear_56_953" x1="34.3203" y1="67.194" x2="145.715" y2="103.388" gradientUnits="userSpaceOnUse">
<stop stop-color="#F9F9F9"/>
<stop offset="1" stop-color="#F9F9F9"/>
</linearGradient>
<linearGradient id="paint30_linear_56_953" x1="34.3203" y1="67.194" x2="145.715" y2="103.388" gradientUnits="userSpaceOnUse">
<stop stop-color="#F9F9F9"/>
<stop offset="1" stop-color="#F9F9F9"/>
</linearGradient>
<linearGradient id="paint31_linear_56_953" x1="34.3203" y1="67.194" x2="145.715" y2="103.388" gradientUnits="userSpaceOnUse">
<stop stop-color="#F9F9F9"/>
<stop offset="1" stop-color="#F9F9F9"/>
</linearGradient>
</defs>
</svg>
